<svg width="100%" height="100%" viewBox="0 0 1416 1483" fill="none"
	xmlns="http://www.w3.org/2000/svg">
	<path
		d="M521.347 2.16863C446.128 11.6579 388.867 28.942 328.217 60.1211C152.707 150.608 35.4736 337.344 4.30184 575.593C-2.81346 629.14 -0.780516 754.195 8.0289 800.286C33.1019 935.845 81.2148 1037.85 156.434 1116.14C197.093 1158.5 231.991 1184.26 282.476 1209C439.013 1285.93 639.596 1266.28 874.059 1150.71C946.567 1114.79 989.597 1090.38 986.887 1086.32C985.87 1084.62 980.788 1085.64 975.706 1088.35C960.798 1095.81 868.976 1122.58 829.337 1130.38C629.431 1170.7 477.977 1139.86 380.057 1038.19C342.109 998.881 320.763 963.635 301.789 909.749C251.982 768.429 282.476 587.793 380.735 441.048C482.043 289.897 636.547 197.377 820.867 178.059C866.266 173.315 960.12 176.026 1007.56 183.143C1051.6 190.26 1113.61 205.51 1159.01 220.422C1200.68 234.317 1198.99 233.978 1198.99 227.878C1198.99 222.456 1140.04 184.159 1078.71 149.93C945.55 75.3717 819.85 28.6031 700.923 8.94666C652.133 0.813011 559.634 -2.57602 521.347 2.16863ZM700.923 63.1712C758.184 73.3383 818.495 90.961 853.39 108.245C883.546 123.157 892.694 132.307 883.885 137.73C878.802 140.78 873.381 141.797 785.629 154.675C722.947 164.164 659.248 180.432 608.086 200.088C500.34 242.112 444.434 279.73 383.445 352.256C213.356 555.259 178.118 834.854 299.417 1017.18C346.853 1088.69 404.114 1133.76 500.001 1174.77C525.413 1185.96 547.436 1196.12 549.469 1198.16C560.989 1209.68 527.107 1217.13 462.053 1216.8C414.617 1216.8 403.436 1215.44 372.942 1207.65C241.817 1173.08 149.657 1085.98 93.4125 942.284C63.596 866.708 52.4148 794.186 52.4148 674.892C52.4148 604.739 53.4313 587.455 60.2078 549.497C99.1725 329.888 215.389 165.52 382.768 92.9945C419.7 77.0662 477.3 61.8156 518.297 56.732C561.667 51.6485 651.455 54.6986 700.923 63.1712Z"
		fill="dodgerblue" />
	<path
		d="M1234.1 217.631C1208.7 256.241 1207 258.273 1200.23 253.87C1189.05 246.757 1117.91 222.034 1088.11 214.583C925.17 174.279 760.544 187.488 626.401 251.499C579.316 273.852 532.908 302.301 536.634 306.027C538.667 308.059 553.233 307.043 573.557 303.317C622.336 294.85 768.335 294.85 820.501 303.317C899.425 316.526 962.77 335.154 1016.97 361.91C1053.89 380.198 1093.19 408.309 1093.19 416.438C1093.19 419.824 1080.31 440.145 1064.73 461.482C1048.81 482.819 1037.29 501.786 1038.65 503.14C1040 504.495 1045.76 504.157 1051.18 502.124C1063.38 497.383 1286.27 431.001 1290 431.001C1291.35 431.001 1296.09 429.646 1300.5 427.953C1308.63 424.905 1308.63 424.905 1287.96 301.963C1276.79 234.565 1265.95 178.682 1264.25 178.005C1262.22 177.666 1248.67 195.278 1234.1 217.631ZM1038.99 232.194C1056.6 236.936 1091.15 249.806 1115.2 260.982C1155.85 279.948 1193.12 294.173 1207.34 296.544C1227.33 299.93 1238.85 320.251 1238.85 352.765C1238.85 367.328 1237.15 374.779 1232.07 380.876C1224.28 391.036 1198.54 402.89 1174.15 407.293C1150.77 411.696 1139.93 406.277 1116.56 378.166C1079.98 333.799 1029.16 305.011 935.671 274.868C847.936 246.757 838.116 243.371 836.422 238.968C833.035 227.791 880.117 221.018 950.914 222.711C995.967 223.727 1012.9 225.42 1038.99 232.194ZM0.742191 843.178C14.9694 1001 59.6836 1125.64 141.659 1234.69C307.305 1455.52 578.3 1534.77 849.969 1441.63C945.494 1408.78 1044.07 1353.57 1128.42 1284.82C1140.95 1274.32 1154.16 1263.82 1157.21 1261.79C1161.95 1258.06 1166.69 1262.13 1192.78 1293.29C1209.04 1312.93 1222.93 1328.51 1223.6 1327.83C1224.28 1327.15 1234.1 1289.9 1245.28 1244.52C1256.8 1199.47 1275.77 1124.28 1287.96 1077.54C1300.16 1030.81 1309.64 991.86 1308.97 991.183C1308.29 990.506 1262.56 994.231 1207.34 999.989C1152.13 1005.41 1074.56 1013.2 1035.26 1016.58C995.967 1020.31 963.448 1023.7 962.77 1024.37C962.093 1025.05 973.949 1038.93 988.515 1055.53C1003.42 1072.13 1014.94 1087.37 1014.26 1089.4C1012.57 1095.49 926.186 1146.3 870.971 1174.07C733.783 1242.48 616.239 1273.98 496.324 1274.32C302.224 1274.66 146.063 1178.13 59.0061 1004.73C32.9228 953.251 15.6469 896.013 9.8883 844.533C8.53332 831.663 5.82334 822.18 3.11339 821.164C-0.274039 820.148 -0.612783 824.89 0.742191 843.178ZM1206.67 1057.56C1232.75 1063.66 1234.1 1076.19 1216.83 1143.59C1199.55 1211.32 1198.2 1213.36 1162.97 1219.79C1134.85 1224.87 1112.49 1236.05 1065.07 1268.56C925.847 1363.39 825.921 1405.73 702.619 1421.99C557.975 1441.29 401.814 1400.31 303.24 1318.01C277.496 1296.33 258.865 1275.34 261.913 1270.59C264.962 1265.51 275.124 1267.21 324.242 1281.09C391.652 1300.06 423.155 1305.14 486.839 1307.17C619.288 1311.24 748.349 1276.69 935.671 1186.6C1000.03 1155.44 1022.39 1137.49 1054.57 1090.75C1060.33 1082.62 1070.15 1073.48 1076.59 1070.43C1083.02 1067.38 1109.45 1062.64 1135.53 1059.93C1196.16 1053.5 1191.08 1053.84 1206.67 1057.56Z"
		fill="white" />
</svg>